<?xml version="1.0" standalone="no"?>
<!DOCTYPE svg PUBLIC "-//W3C//DTD SVG 20010904//EN"
 "http://www.w3.org/TR/2001/REC-SVG-20010904/DTD/svg10.dtd">
<svg version="1.0" xmlns="http://www.w3.org/2000/svg"
 width="512.000000pt" height="512.000000pt" viewBox="0 0 512.000000 512.000000"
 preserveAspectRatio="xMidYMid meet">

<g transform="translate(0.000000,512.000000) scale(0.100000,-0.100000)"
fill="#000000" stroke="none">
<path d="M884 4351 c-99 -24 -193 -101 -240 -196 -25 -53 -29 -73 -33 -167
l-3 -108 -267 0 c-247 0 -268 -1 -298 -20 -52 -31 -57 -97 -11 -140 21 -20 33
-20 594 -20 l572 0 26 31 c30 35 32 58 11 98 -22 44 -59 51 -261 51 l-184 0 0
79 c0 116 23 161 102 202 36 18 76 19 1160 19 1068 0 1125 -1 1163 -19 48 -22
69 -44 90 -94 13 -32 15 -173 15 -1180 0 -1131 0 -1145 20 -1170 40 -51 128
-39 151 20 6 16 8 448 7 1187 l-3 1161 -28 60 c-47 100 -126 169 -227 199 -48
14 -180 16 -1189 15 -625 -1 -1150 -4 -1167 -8z"/>
<path d="M365 3285 c-45 -44 -29 -116 30 -141 44 -18 743 -21 794 -3 32 11 61
52 61 88 0 11 -12 33 -26 50 l-26 31 -404 0 -405 0 -24 -25z"/>
<path d="M1505 3287 c-38 -32 -39 -88 -2 -125 24 -23 36 -27 103 -30 98 -5
149 9 169 48 21 41 19 64 -11 99 -26 31 -26 31 -129 31 -94 0 -106 -2 -130
-23z"/>
<path d="M3691 3074 c-25 -20 -31 -34 -31 -64 0 -30 6 -44 31 -64 27 -23 39
-26 105 -26 l74 0 0 -219 c0 -186 3 -228 19 -280 34 -110 110 -190 220 -231
44 -17 77 -20 242 -20 l190 0 24 26 c27 29 32 72 14 106 -20 38 -68 48 -233
48 -160 0 -195 6 -235 43 -54 50 -61 84 -61 315 l0 212 173 0 c202 0 243 -10
312 -73 40 -38 336 -462 381 -547 18 -32 19 -67 22 -472 l3 -438 -64 0 -64 0
-23 71 c-82 253 -336 411 -596 371 -207 -32 -376 -184 -438 -391 -21 -71 -21
-211 0 -282 70 -237 283 -399 522 -399 229 1 447 163 513 382 l21 68 125 0
125 0 29 30 30 29 -3 508 c-3 493 -4 510 -25 565 -26 71 -361 566 -424 628
-25 25 -68 57 -95 72 -99 54 -138 58 -510 58 l-342 0 -31 -26z m745 -1454
c265 -130 263 -511 -4 -642 -60 -30 -75 -33 -157 -33 -79 0 -97 3 -149 29 -73
36 -135 97 -173 168 -25 48 -28 63 -28 153 0 88 3 107 27 157 44 95 138 172
242 199 17 5 64 6 105 4 57 -3 88 -11 137 -35z"/>
<path d="M147 2730 c-31 -25 -42 -65 -26 -102 18 -44 56 -58 154 -58 119 0
154 21 155 93 0 27 -7 45 -25 62 -22 23 -31 25 -128 25 -89 0 -108 -3 -130
-20z"/>
<path d="M765 2725 c-28 -27 -34 -88 -12 -116 27 -35 53 -39 266 -39 l209 0
31 26 c41 34 44 92 6 129 l-24 25 -226 0 -226 0 -24 -25z"/>
<path d="M54 2180 c-58 -23 -70 -95 -25 -141 l29 -29 276 0 276 0 0 -374 0
-374 31 -26 c38 -33 79 -33 116 -2 l28 24 3 423 c2 307 -1 431 -9 452 -23 55
-38 57 -386 56 -175 0 -328 -4 -339 -9z"/>
<path d="M1134 2180 c-58 -24 -70 -95 -25 -141 l29 -29 162 0 162 0 30 30 c26
27 30 36 25 67 -12 72 -27 78 -205 80 -86 1 -167 -2 -178 -7z"/>
<path d="M1465 1828 c-92 -17 -193 -74 -270 -152 -109 -111 -155 -222 -155
-376 0 -157 46 -267 154 -375 142 -141 319 -194 505 -150 187 44 363 216 399
391 l8 39 577 5 576 5 23 23 c31 31 31 93 0 124 l-23 23 -576 5 -577 5 -8 39
c-26 124 -149 278 -275 344 -105 55 -236 73 -358 50z m257 -201 c183 -85 261
-302 176 -485 -30 -64 -106 -138 -176 -170 -48 -23 -70 -27 -147 -27 -76 0
-98 4 -145 26 -78 37 -131 87 -171 161 -33 60 -34 67 -34 168 0 95 3 110 27
156 15 28 38 65 52 82 35 41 118 93 175 109 68 19 179 10 243 -20z"/>
</g>
</svg>
