<?xml version="1.0" standalone="no"?>
<!DOCTYPE svg PUBLIC "-//W3C//DTD SVG 20010904//EN"
 "http://www.w3.org/TR/2001/REC-SVG-20010904/DTD/svg10.dtd">
<svg version="1.0" xmlns="http://www.w3.org/2000/svg"
 width="200.000000pt" height="200.000000pt" viewBox="0 0 200.000000 200.000000"
 preserveAspectRatio="xMidYMid meet">

<g transform="translate(0.000000,200.000000) scale(0.100000,-0.100000)"
fill="#000000" stroke="none">
<path d="M459 1802 c-34 -17 -65 -44 -84 -71 -29 -41 -30 -48 -33 -160 -4
-128 4 -151 52 -151 50 0 61 21 64 122 2 51 8 104 15 116 25 51 31 52 527 52
480 0 487 -1 522 -44 16 -19 18 -59 18 -452 0 -405 1 -432 18 -447 27 -25 78
-22 96 5 14 19 16 74 16 398 -1 206 -5 408 -9 449 -11 93 -44 143 -120 183
l-53 28 -488 0 -488 0 -53 -28z"/>
<path d="M627 1520 c-36 -29 -47 -76 -47 -210 0 -209 18 -230 196 -230 97 0
113 2 132 20 27 26 28 64 2 90 -17 17 -33 20 -110 20 l-90 0 0 100 0 100 290
0 290 0 0 -100 0 -100 -110 0 c-97 0 -112 -2 -130 -20 -27 -27 -25 -62 3 -88
21 -20 34 -22 151 -22 205 0 216 12 216 237 0 124 -3 153 -17 173 -34 50 -27
49 -399 50 -339 0 -352 -1 -377 -20z"/>
<path d="M355 1214 c-14 -14 -15 -64 -13 -459 l3 -443 30 -44 c21 -28 50 -53
90 -73 l59 -30 485 0 c483 0 486 0 527 22 56 30 109 94 123 148 6 24 11 76 11
114 0 81 -19 111 -69 111 -45 0 -61 -31 -61 -115 0 -84 -14 -114 -60 -137 -32
-16 -77 -18 -488 -18 -487 0 -493 1 -520 52 -9 17 -13 138 -14 441 -3 401 -4
419 -22 433 -26 19 -61 18 -81 -2z"/>
<path d="M645 951 c-39 -16 -58 -49 -58 -98 0 -39 4 -50 31 -75 69 -61 172
-15 172 77 0 77 -73 125 -145 96z"/>
<path d="M944 941 c-89 -54 -47 -191 57 -191 74 0 124 75 95 143 -15 38 -59
67 -98 67 -13 0 -37 -9 -54 -19z"/>
<path d="M1260 943 c-48 -33 -49 -38 -50 -236 l0 -189 29 -29 c41 -41 98 -41
143 0 l33 29 3 179 c2 164 1 181 -18 211 -32 51 -94 67 -140 35z"/>
<path d="M634 651 c-89 -55 -48 -191 58 -191 30 0 46 7 69 29 84 85 -26 226
-127 162z"/>
<path d="M944 651 c-88 -54 -47 -191 56 -191 45 0 78 23 96 66 27 66 -26 144
-98 144 -13 0 -37 -9 -54 -19z"/>
</g>
</svg>
