<?xml version="1.0" standalone="no"?>
<!DOCTYPE svg PUBLIC "-//W3C//DTD SVG 20010904//EN"
 "http://www.w3.org/TR/2001/REC-SVG-20010904/DTD/svg10.dtd">
<svg version="1.0" xmlns="http://www.w3.org/2000/svg"
 width="512.000000pt" height="512.000000pt" viewBox="0 0 512.000000 512.000000"
 preserveAspectRatio="xMidYMid meet">

<g transform="translate(0.000000,512.000000) scale(0.100000,-0.100000)"
fill="#000000" stroke="none">
<path d="M2480 4640 l0 -240 80 0 80 0 0 240 0 240 -80 0 -80 0 0 -240z"/>
<path d="M1200 4315 l-55 -55 170 -170 170 -170 57 57 58 58 -167 167 c-92 93
-170 168 -173 168 -3 0 -30 -25 -60 -55z"/>
<path d="M3687 4202 l-167 -167 58 -58 57 -57 170 170 170 170 -55 55 c-30 30
-57 55 -60 55 -3 0 -81 -75 -173 -168z"/>
<path d="M2410 4229 c-430 -53 -806 -320 -1000 -708 -116 -233 -158 -558 -105
-811 83 -397 327 -715 684 -896 l91 -45 0 -298 c0 -164 5 -322 10 -352 32
-166 167 -316 330 -365 l60 -18 0 -48 0 -48 -1135 0 -1136 0 -24 -25 c-25 -24
-25 -26 -25 -215 0 -189 0 -191 25 -215 l24 -25 2191 0 2191 0 24 25 c24 23
25 29 25 165 0 112 3 140 14 140 7 0 45 16 83 35 86 43 144 103 186 193 l32
67 3 302 3 303 -25 25 c-21 21 -35 25 -81 25 l-55 0 0 120 0 120 -80 0 -80 0
0 -120 0 -120 -80 0 -80 0 0 120 0 120 -80 0 -80 0 0 -120 0 -120 -55 0 c-46
0 -60 -4 -81 -25 l-25 -25 3 -303 3 -302 32 -67 c42 -90 100 -150 186 -193 38
-19 76 -35 83 -35 11 0 14 -20 14 -85 l0 -85 -2080 0 -2080 0 0 80 0 80 1135
0 1136 0 24 25 c23 22 25 31 25 128 l0 103 60 18 c163 49 298 199 330 365 5
30 10 188 10 352 l0 299 75 35 c111 53 241 144 332 232 345 335 473 824 338
1288 -131 449 -522 802 -987 890 -104 20 -291 27 -388 14z m66 -296 c-3 -7
-18 -13 -33 -13 -102 0 -343 -95 -453 -178 l-54 -42 -53 52 c-38 37 -50 55
-42 64 23 27 165 118 242 154 99 47 237 88 327 98 l65 7 3 -64 c2 -35 1 -70
-2 -78z m391 101 c48 -14 125 -43 170 -64 76 -36 219 -127 242 -154 7 -8 -6
-27 -41 -64 l-50 -53 -52 39 c-118 89 -269 153 -410 175 l-81 13 -3 75 -3 75
70 -8 c38 -4 109 -20 158 -34z m-167 -278 c334 -61 597 -329 649 -663 44 -284
-64 -563 -287 -744 -216 -174 -503 -224 -766 -133 -369 128 -595 516 -522 896
84 436 495 722 926 644z m-931 -120 l54 -55 -26 -30 c-91 -109 -169 -297 -192
-463 l-6 -48 -81 0 -80 0 7 53 c21 167 86 342 179 480 73 109 79 117 86 117 3
0 30 -24 59 -54z m1752 -101 c76 -123 136 -294 153 -437 l7 -58 -79 0 -79 0
-13 77 c-24 149 -89 306 -172 417 l-38 50 53 54 52 53 33 -38 c19 -21 56 -74
83 -118z m-1911 -686 c0 -110 97 -347 189 -463 l32 -40 -57 -58 c-42 -41 -61
-55 -70 -47 -27 23 -118 165 -154 242 -47 99 -87 234 -98 328 l-8 69 83 0 83
0 0 -31z m2060 -6 c-1 -57 -35 -199 -69 -289 -34 -89 -114 -228 -164 -287
l-32 -38 -57 58 -58 59 42 54 c82 109 178 350 178 449 l0 31 80 0 80 0 0 -37z
m-1688 -638 c103 -87 351 -185 467 -185 l31 0 0 -90 c0 -70 -3 -90 -14 -90
-81 0 -305 64 -411 118 -62 31 -161 96 -198 130 l-27 26 57 58 c32 32 59 58
61 58 2 0 17 -11 34 -25z m1252 -34 l58 -58 -59 -45 c-153 -117 -346 -197
-540 -223 l-53 -7 0 91 0 91 34 0 c105 0 341 91 444 171 26 21 49 38 52 38 3
1 32 -25 64 -58z m-884 -474 c30 -6 125 -11 210 -11 138 0 201 6 293 29 l28 8
-3 -299 -3 -299 -27 -52 c-62 -116 -162 -178 -288 -178 -125 0 -227 63 -288
178 l-27 52 -3 299 -3 299 28 -8 c15 -3 52 -12 83 -18z m2450 -633 c0 -257 -5
-279 -75 -349 -101 -102 -229 -102 -330 0 -70 70 -75 92 -75 349 l0 216 240 0
240 0 0 -216z"/>
<path d="M2480 3520 l0 -80 -95 0 c-88 0 -98 -2 -120 -25 l-25 -24 0 -231 0
-231 25 -24 c24 -25 24 -25 240 -25 l215 0 0 -120 0 -120 -240 0 -240 0 0 -80
0 -80 120 0 120 0 0 -80 0 -80 80 0 80 0 0 80 0 80 95 0 c88 0 98 2 120 25
l25 24 0 231 0 231 -25 24 c-24 25 -24 25 -240 25 l-215 0 0 120 0 120 240 0
240 0 0 80 0 80 -120 0 -120 0 0 80 0 80 -80 0 -80 0 0 -80z"/>
<path d="M640 2960 l0 -80 240 0 240 0 0 80 0 80 -240 0 -240 0 0 -80z"/>
<path d="M4000 2960 l0 -80 240 0 240 0 0 80 0 80 -240 0 -240 0 0 -80z"/>
<path d="M1315 1830 l-170 -170 58 -57 57 -58 170 170 170 170 -58 58 -57 57
-170 -170z"/>
<path d="M3577 1942 l-57 -57 170 -170 170 -170 57 58 58 57 -170 170 -170
170 -58 -58z"/>
</g>
</svg>
