<?xml version="1.0" standalone="no"?>
<!DOCTYPE svg PUBLIC "-//W3C//DTD SVG 20010904//EN"
 "http://www.w3.org/TR/2001/REC-SVG-20010904/DTD/svg10.dtd">
<svg version="1.0" xmlns="http://www.w3.org/2000/svg"
 width="512.000000pt" height="512.000000pt" viewBox="0 0 512.000000 512.000000"
 preserveAspectRatio="xMidYMid meet">

<g transform="translate(0.000000,512.000000) scale(0.100000,-0.100000)"
fill="#000000" stroke="none">
<path d="M3736 4459 l-26 -20 0 -169 c0 -148 2 -170 18 -191 13 -15 30 -22 52
-22 22 0 39 7 52 22 16 21 18 43 18 191 l0 169 -26 20 c-15 12 -34 21 -44 21
-10 0 -29 -9 -44 -21z"/>
<path d="M3100 4290 c-19 -19 -25 -38 -20 -70 1 -8 36 -74 78 -147 80 -137
106 -163 152 -148 29 9 53 50 46 78 -8 35 -145 269 -168 290 -27 23 -63 22
-88 -3z"/>
<path d="M4372 4293 c-23 -21 -160 -255 -168 -290 -7 -28 17 -69 46 -78 47
-15 72 11 154 153 86 148 95 182 57 214 -29 23 -63 23 -89 1z"/>
<path d="M3635 3915 c-373 -70 -644 -399 -645 -781 0 -206 64 -358 246 -584
130 -160 183 -239 238 -347 l36 -73 100 0 100 0 0 451 0 450 -32 14 c-99 41
-166 130 -175 234 -5 54 -4 59 22 79 15 12 36 22 47 22 27 0 68 -45 68 -75 0
-96 120 -166 205 -121 36 20 75 81 75 119 0 61 75 93 121 51 18 -16 21 -27 16
-76 -9 -102 -75 -192 -169 -231 l-38 -16 0 -450 0 -451 100 0 100 0 36 73 c55
108 108 187 237 347 176 218 230 336 243 528 30 413 -258 777 -666 842 -85 13
-178 11 -265 -5z"/>
<path d="M2630 3820 c-22 -22 -26 -51 -10 -80 13 -24 282 -180 310 -180 26 0
70 43 70 69 0 34 -40 67 -167 140 -131 76 -169 85 -203 51z"/>
<path d="M4721 3766 c-126 -74 -161 -103 -161 -138 0 -25 44 -68 70 -68 26 0
279 143 303 172 38 45 6 109 -55 107 -22 0 -76 -26 -157 -73z"/>
<path d="M930 3743 c-40 -8 -45 -17 -75 -125 l-28 -103 -81 -32 -81 -32 -87
49 c-49 28 -100 50 -114 50 -20 0 -53 -26 -140 -113 -62 -62 -116 -125 -119
-139 -5 -20 6 -47 45 -117 31 -54 50 -98 47 -109 -15 -50 -57 -138 -69 -144
-7 -4 -53 -19 -103 -33 -49 -14 -95 -31 -102 -38 -28 -28 -28 -333 0 -371 7
-9 55 -28 107 -42 52 -14 99 -29 104 -34 8 -8 52 -107 63 -142 3 -9 -17 -56
-47 -109 -34 -61 -50 -99 -46 -113 12 -49 227 -256 265 -256 10 0 59 23 109
51 l92 51 42 -20 c24 -10 59 -25 79 -32 36 -13 37 -15 64 -116 15 -57 34 -109
42 -116 18 -14 268 -23 333 -11 49 9 49 7 95 175 12 42 22 59 38 64 12 3 48
17 79 31 l57 25 90 -51 c50 -28 99 -51 109 -51 38 0 223 176 261 248 11 21 6
34 -42 119 l-54 96 33 80 33 81 107 31 c130 36 126 28 126 230 0 170 -6 190
-64 205 -24 6 -72 20 -108 31 l-65 19 -31 79 -30 80 54 96 c63 113 64 104 -30
209 -77 85 -164 156 -191 156 -11 0 -60 -22 -109 -50 l-88 -50 -80 33 c-77 31
-81 34 -91 72 -5 22 -20 72 -32 110 -20 63 -25 71 -52 76 -34 8 -277 9 -315 2z
m251 -568 c55 -7 154 -53 221 -102 64 -47 143 -160 168 -240 59 -191 18 -370
-116 -513 -102 -108 -222 -160 -369 -160 -285 0 -515 228 -515 510 0 256 194
478 445 509 59 7 77 7 166 -4z"/>
<path d="M2461 3184 c-27 -35 -27 -65 2 -92 22 -21 33 -22 194 -22 158 0 171
1 188 20 26 29 24 79 -4 102 -21 16 -43 18 -191 18 l-169 0 -20 -26z"/>
<path d="M4719 3192 c-15 -13 -22 -30 -22 -52 0 -22 7 -39 22 -52 21 -16 43
-18 190 -18 162 0 168 1 189 23 28 29 28 57 1 91 l-20 26 -169 0 c-148 0 -170
-2 -191 -18z"/>
<path d="M3510 1883 c0 -128 15 -170 80 -226 107 -92 277 -90 383 4 60 52 79
102 85 227 l5 102 -277 0 -276 0 0 -107z"/>
<path d="M1030 1333 c-21 -27 -22 -35 -18 -218 4 -168 7 -197 27 -247 31 -80
98 -150 179 -190 l67 -33 1145 0 1145 0 62 29 c74 34 153 112 185 183 20 43
22 69 26 251 4 201 3 204 -19 228 -29 31 -69 31 -97 1 -21 -22 -22 -33 -22
-191 0 -202 -8 -234 -71 -297 -37 -37 -57 -49 -100 -59 -40 -8 -339 -10 -1139
-8 l-1085 3 -40 22 c-47 25 -76 54 -101 103 -15 29 -19 69 -23 228 -6 177 -8
195 -25 208 -32 23 -72 17 -96 -13z"/>
</g>
</svg>
