<?xml version="1.0" standalone="no"?>
<!DOCTYPE svg PUBLIC "-//W3C//DTD SVG 20010904//EN"
 "http://www.w3.org/TR/2001/REC-SVG-20010904/DTD/svg10.dtd">
<svg version="1.0" xmlns="http://www.w3.org/2000/svg"
 width="512.000000pt" height="512.000000pt" viewBox="0 0 512.000000 512.000000"
 preserveAspectRatio="xMidYMid meet">

<g transform="translate(0.000000,512.000000) scale(0.100000,-0.100000)"
fill="#000000" stroke="none">
<path d="M3554 5026 c-26 -11 -37 -28 -60 -86 -16 -41 -35 -75 -45 -77 -8 -3
-49 -19 -90 -37 l-74 -32 -71 29 c-46 19 -80 28 -95 24 -14 -4 -73 -55 -132
-115 -121 -124 -122 -125 -81 -226 l27 -65 -33 -78 c-18 -43 -35 -84 -39 -91
-3 -8 -38 -26 -76 -41 -48 -18 -73 -34 -82 -51 -8 -17 -13 -74 -13 -171 0
-175 4 -183 104 -218 59 -21 66 -26 77 -59 6 -21 22 -59 35 -86 30 -61 30 -61
-1 -130 -41 -93 -39 -97 88 -224 127 -127 132 -129 228 -86 l58 26 95 -38 95
-38 22 -60 c36 -103 44 -106 222 -106 119 0 157 3 174 15 12 8 33 45 47 83
l26 67 91 39 92 39 51 -23 c28 -13 69 -25 91 -27 39 -4 42 -3 153 110 83 84
112 120 112 139 0 14 -13 54 -29 89 l-29 64 20 40 c12 22 28 62 38 89 16 48
19 51 91 81 49 20 78 39 87 55 9 18 12 67 10 172 -3 171 -6 176 -105 213 -63
24 -59 19 -105 130 l-34 81 28 59 c45 99 44 103 -85 232 -129 129 -132 130
-232 84 l-60 -27 -80 33 c-111 47 -105 42 -129 106 -37 98 -43 102 -209 104
-104 2 -150 -1 -173 -11z m257 -213 c34 -76 38 -79 129 -108 36 -12 92 -36
125 -53 33 -18 65 -32 72 -32 6 0 39 12 73 27 l61 26 51 -50 51 -51 -28 -70
-28 -71 35 -68 c20 -37 45 -99 58 -137 26 -78 37 -90 111 -120 l54 -21 3 -72
3 -71 -58 -22 c-75 -28 -90 -42 -108 -104 -9 -28 -34 -90 -57 -138 l-41 -88
26 -62 c15 -35 27 -68 27 -73 0 -6 -21 -32 -48 -58 l-47 -46 -54 24 c-70 33
-97 32 -178 -9 -37 -19 -92 -41 -122 -50 -70 -20 -84 -34 -111 -107 l-22 -59
-73 0 -73 0 -22 58 c-30 75 -42 85 -125 112 -38 12 -94 35 -122 51 -64 35 -94
36 -164 5 l-54 -24 -52 50 -51 51 24 55 c30 69 30 103 0 155 -13 23 -37 78
-52 122 -15 44 -34 87 -43 96 -9 9 -42 26 -73 39 l-58 22 0 72 0 72 50 18 c74
27 97 49 115 113 9 31 32 87 51 125 39 78 42 113 14 168 -11 22 -20 45 -20 52
0 8 22 36 49 62 l50 49 59 -26 c33 -15 65 -27 71 -27 6 0 40 14 74 31 34 18
93 42 131 55 86 30 99 41 126 115 l22 59 70 0 69 0 30 -67z"/>
<path d="M3605 4525 c-407 -90 -553 -587 -260 -880 206 -207 532 -207 739 0
75 75 121 162 143 272 34 162 -17 333 -138 458 -127 133 -309 189 -484 150z
m200 -160 c332 -86 369 -537 57 -683 -49 -23 -70 -27 -147 -27 -78 0 -98 4
-150 28 -78 36 -146 104 -182 181 -24 53 -28 73 -28 151 0 76 4 99 26 145 48
103 133 176 239 204 72 19 113 19 185 1z"/>
<path d="M2268 3771 c-210 -68 -344 -285 -308 -500 13 -80 54 -172 98 -222
l30 -35 -99 -369 c-54 -204 -102 -378 -106 -387 -9 -20 3 -25 -445 228 -300
170 -307 174 -388 174 -79 0 -147 -29 -205 -88 -22 -22 -181 -135 -352 -252
-186 -126 -327 -228 -348 -253 -38 -44 -65 -118 -65 -176 0 -128 96 -243 226
-272 79 -18 144 0 246 66 45 30 83 53 84 52 1 -1 -59 -308 -132 -682 -142
-720 -141 -715 -103 -805 80 -183 334 -220 464 -67 44 51 55 87 141 462 37
160 68 291 69 293 2 2 48 -27 103 -63 l100 -67 11 -76 c6 -43 14 -98 17 -124
l7 -48 -36 0 c-24 0 -46 -8 -64 -24 l-28 -24 -3 -163 c-3 -105 0 -177 8 -202
19 -65 30 -67 424 -67 214 0 355 4 372 10 51 20 53 31 54 231 0 228 -1 231
-104 237 -64 4 -66 5 -66 32 0 15 -14 123 -31 240 -32 222 -46 271 -97 327
-16 17 -145 108 -288 203 -142 95 -260 173 -261 174 -4 3 63 396 68 400 3 3
63 -28 134 -68 87 -48 129 -77 126 -87 -25 -90 -31 -123 -31 -179 0 -113 41
-216 118 -302 47 -52 73 -62 117 -44 38 16 33 4 98 246 l34 124 49 13 49 12
37 -37 37 -37 -44 -165 c-25 -91 -45 -172 -45 -181 0 -9 9 -28 21 -43 30 -38
85 -35 177 9 259 124 340 443 172 678 -22 30 -40 59 -40 64 -1 4 56 222 126
484 l127 475 56 22 c267 105 367 442 202 682 -48 70 -95 104 -136 96 -16 -4
-36 -12 -43 -20 -7 -7 -34 -89 -59 -182 -25 -93 -46 -170 -48 -172 -2 -2 -25
-9 -53 -16 l-50 -14 -35 37 -35 36 44 160 c24 88 43 171 43 185 0 29 -15 52
-46 68 -27 15 -26 15 -95 -7z m-89 -327 c-19 -72 -25 -113 -19 -127 10 -26
168 -182 192 -190 27 -10 237 49 262 73 15 13 31 52 47 115 13 52 27 95 32 95
5 0 8 -37 5 -83 -3 -67 -9 -93 -31 -129 -47 -81 -119 -131 -220 -153 -15 -3
-35 -14 -45 -25 -9 -11 -62 -191 -119 -403 -56 -210 -114 -426 -129 -480 l-27
-98 -17 28 c-10 15 -32 41 -49 57 -17 17 -31 35 -31 42 0 7 52 207 116 444 74
277 113 439 108 453 -3 12 -24 40 -46 61 -89 87 -118 223 -69 331 17 39 56 95
66 95 1 0 -11 -48 -26 -106z m-827 -1093 c145 -82 340 -192 433 -244 180 -101
205 -123 205 -185 0 -65 -58 -122 -122 -122 -14 0 -141 65 -284 145 -142 80
-287 160 -321 177 -61 31 -63 32 -97 16 -19 -9 -37 -25 -40 -35 -3 -10 -28
-152 -55 -315 -40 -234 -49 -302 -40 -321 7 -14 121 -97 299 -214 159 -105
296 -203 305 -217 19 -29 79 -417 70 -454 -5 -22 -8 -23 -118 -20 l-112 3 -23
160 c-13 88 -29 166 -35 174 -7 8 -92 67 -189 133 -189 125 -219 137 -258 98
-11 -11 -23 -32 -26 -47 -4 -16 -46 -196 -94 -401 -93 -402 -97 -412 -166
-431 -17 -5 -44 -6 -58 -4 -35 7 -82 55 -89 90 -5 28 384 2043 405 2096 17 43
54 67 104 67 38 0 79 -20 306 -149z m-637 -223 c-14 -73 -28 -140 -31 -149 -6
-20 -268 -195 -305 -204 -60 -15 -139 52 -139 117 0 56 22 77 219 212 296 201
276 188 279 172 2 -9 -8 -75 -23 -148z m1465 -350 c65 -90 75 -209 26 -307
-23 -44 -56 -83 -56 -66 0 4 12 50 26 102 30 111 27 126 -41 193 l-44 43 22
38 c12 22 25 39 29 39 5 0 22 -19 38 -42z m-483 -80 c12 -15 -28 -174 -40
-162 -10 11 -9 118 3 148 10 29 22 33 37 14z m183 -1378 l0 -80 -267 2 -268 3
-3 64 c-2 35 -1 70 2 77 4 11 57 14 271 14 l265 0 0 -80z"/>
<path d="M1215 3466 c-116 -37 -207 -116 -258 -223 -61 -133 -46 -300 38 -415
94 -128 257 -196 405 -168 221 41 377 256 340 469 -28 163 -138 291 -289 335
-65 19 -180 20 -236 2z m220 -165 c193 -89 200 -362 12 -458 -129 -66 -288
-10 -348 122 -22 47 -24 129 -7 189 15 51 99 137 148 153 57 18 150 15 195 -6z"/>
<path d="M4032 3047 l-22 -23 -2 -605 -3 -604 -353 -5 -354 -5 -19 -24 c-10
-13 -19 -38 -19 -57 l0 -34 -105 0 c-154 0 -159 -7 -153 -225 3 -136 3 -137
31 -161 26 -22 37 -24 128 -24 l99 0 0 -65 0 -65 -105 0 c-154 0 -159 -7 -153
-225 3 -136 3 -137 31 -161 26 -22 37 -24 128 -24 l99 0 0 -65 0 -65 -105 0
c-154 0 -159 -7 -153 -225 3 -136 3 -137 31 -161 26 -22 37 -24 128 -24 l99 0
0 -29 c0 -17 10 -42 24 -58 l24 -28 842 0 842 0 24 28 24 28 0 708 0 708 -25
25 c-14 14 -81 62 -150 108 l-125 83 0 614 c0 649 -1 660 -45 677 -9 3 -157 6
-329 6 l-313 0 -21 -23z m546 -1469 l-3 -1333 -577 -3 -578 -2 0 35 c0 25 -8
44 -25 60 -23 23 -31 25 -130 25 l-105 0 0 44 0 44 106 4 c102 3 107 4 130 31
23 27 24 33 24 198 0 167 0 170 -25 194 -23 23 -31 25 -130 25 l-105 0 0 44 0
44 106 4 c102 3 107 4 130 31 23 27 24 33 24 198 0 167 0 170 -25 194 -23 23
-31 25 -130 25 l-105 0 0 44 0 44 106 4 c102 3 107 4 130 31 14 16 24 41 24
58 l0 29 344 0 345 0 28 24 28 24 3 606 3 606 204 0 205 0 -2 -1332z m302
-714 l0 -624 -70 0 -70 0 0 670 0 670 70 -46 70 -47 0 -623z"/>
<path d="M3373 2960 c-12 -5 -26 -18 -32 -29 -7 -13 -11 -186 -11 -524 l0
-504 23 -21 c23 -21 30 -22 294 -22 252 0 272 1 294 19 l24 19 3 507 3 506
-30 30 -29 29 -259 -1 c-142 0 -268 -4 -280 -9z m437 -545 l0 -395 -160 0
-160 0 0 395 0 395 160 0 160 0 0 -395z"/>
</g>
</svg>
