<?xml version="1.0" standalone="no"?>
<!DOCTYPE svg PUBLIC "-//W3C//DTD SVG 20010904//EN"
 "http://www.w3.org/TR/2001/REC-SVG-20010904/DTD/svg10.dtd">
<svg version="1.0" xmlns="http://www.w3.org/2000/svg"
 width="512.000000pt" height="512.000000pt" viewBox="0 0 512.000000 512.000000"
 preserveAspectRatio="xMidYMid meet">

<g transform="translate(0.000000,512.000000) scale(0.100000,-0.100000)"
fill="#000000" stroke="none">
<path d="M787 5065 c-160 -31 -287 -96 -302 -158 -13 -52 17 -88 128 -152 166
-96 389 -249 426 -290 90 -103 80 -221 -33 -380 -57 -79 -121 -129 -195 -151
-100 -30 -123 -22 -379 130 -126 75 -244 141 -260 147 -39 13 -94 -10 -111
-47 -7 -15 -11 -85 -11 -179 l0 -154 118 -158 c233 -311 410 -511 483 -545 27
-13 69 -17 214 -17 99 0 243 -3 320 -7 l140 -6 232 -231 233 -232 -739 -740
c-558 -559 -746 -753 -769 -795 -45 -82 -62 -151 -62 -254 0 -101 24 -185 75
-266 37 -61 258 -280 320 -319 150 -95 363 -97 522 -6 31 18 309 288 788 766
l740 739 219 -219 220 -220 9 -328 9 -328 25 -40 c51 -79 235 -240 542 -473
73 -56 143 -105 156 -108 12 -3 90 -4 173 -2 150 3 152 3 179 30 51 52 43 75
-118 343 l-144 240 0 70 c0 51 7 83 23 118 53 118 244 247 364 247 72 0 119
-22 174 -82 45 -48 156 -214 258 -385 37 -62 77 -119 89 -128 32 -22 89 -19
117 7 31 29 83 146 106 238 26 104 26 349 0 470 -45 211 -151 450 -260 586
-66 84 -163 162 -226 183 -19 6 -188 34 -374 61 l-340 49 -213 213 c-117 117
-213 217 -213 223 0 6 288 298 640 650 602 601 641 643 655 690 50 175 245
955 245 983 0 43 -46 92 -87 92 -15 -1 -257 -56 -536 -124 l-509 -123 -647
-647 -646 -646 -231 232 -231 233 -47 345 c-55 399 -59 413 -165 520 -82 83
-164 139 -295 200 -118 56 -225 94 -345 121 -116 27 -347 34 -454 14z m313
-185 c265 -35 579 -187 682 -333 19 -26 30 -86 74 -400 l52 -370 256 -256 256
-256 -90 -90 -90 -90 -243 242 c-158 158 -252 244 -270 249 -56 13 -117 -37
-117 -96 0 -41 31 -77 259 -305 l231 -230 -82 -82 -83 -83 -135 133 c-74 73
-191 187 -260 254 l-125 121 -95 7 c-52 4 -209 10 -349 13 l-255 7 -95 111
c-53 61 -158 189 -233 285 -110 140 -137 180 -138 206 l0 32 165 -99 c108 -64
183 -102 216 -109 197 -42 401 47 534 234 174 243 176 471 5 645 -49 50 -319
240 -341 240 -5 0 -9 4 -9 9 0 18 172 25 280 11z m3568 -490 c-44 -173 -82
-317 -84 -320 -3 -2 -112 104 -244 235 -132 131 -237 241 -234 244 5 6 637
160 641 157 1 -1 -34 -143 -79 -316z m-468 -225 l295 -295 -1563 -1563 -1562
-1562 -297 298 -298 297 1560 1560 c858 858 1562 1560 1565 1560 3 0 138 -133
300 -295z m-655 -2025 l240 -240 360 -50 c232 -32 372 -56 393 -67 47 -24 134
-121 182 -203 50 -85 113 -241 141 -347 23 -86 37 -298 24 -378 l-7 -48 -40
64 c-86 137 -135 205 -197 271 -173 185 -396 195 -637 30 -121 -82 -208 -194
-244 -310 -24 -76 -26 -198 -6 -263 7 -24 54 -113 105 -198 50 -84 91 -155 91
-157 0 -2 -12 -4 -27 -4 -17 0 -55 22 -107 62 -159 122 -379 302 -436 357
l-58 56 -7 270 c-3 149 -10 305 -14 348 l-7 77 -244 245 -245 245 85 85 85 85
235 -235 236 -235 46 0 c39 0 50 5 72 31 18 20 26 42 26 67 0 34 -15 51 -237
274 l-238 238 85 85 c47 47 89 85 95 85 5 0 118 -108 250 -240z m-2605 -1235
l295 -295 -85 -85 c-109 -110 -167 -140 -265 -140 -110 1 -164 31 -300 167
-62 62 -122 132 -134 156 -45 88 -46 190 -4 280 16 34 177 212 192 212 3 0
139 -133 301 -295z"/>
<path d="M3775 3870 c-11 -5 -575 -563 -1252 -1242 -1228 -1228 -1233 -1233
-1233 -1273 0 -22 7 -50 15 -62 21 -31 75 -46 111 -33 33 12 2457 2429 2480
2472 44 84 -36 175 -121 138z"/>
</g>
</svg>
