<?xml version="1.0" standalone="no"?>
<!DOCTYPE svg PUBLIC "-//W3C//DTD SVG 20010904//EN"
 "http://www.w3.org/TR/2001/REC-SVG-20010904/DTD/svg10.dtd">
<svg version="1.0" xmlns="http://www.w3.org/2000/svg"
 width="512.000000pt" height="512.000000pt" viewBox="0 0 512.000000 512.000000"
 preserveAspectRatio="xMidYMid meet">

<g transform="translate(0.000000,512.000000) scale(0.100000,-0.100000)"
fill="#000000" stroke="none">
<path d="M2443 5109 c-245 -41 -355 -217 -324 -520 13 -129 32 -204 76 -294
134 -280 449 -340 649 -125 98 107 152 257 163 457 12 227 -49 368 -190 439
-89 46 -248 64 -374 43z"/>
<path d="M1100 4177 c-113 -27 -192 -92 -225 -186 -50 -142 -17 -390 70 -526
83 -131 237 -187 378 -139 53 18 137 89 173 146 56 88 86 215 86 357 -1 188
-66 294 -209 337 -67 21 -206 26 -273 11z"/>
<path d="M3790 4177 c-116 -28 -174 -72 -219 -167 -24 -51 -26 -66 -26 -190 0
-113 4 -147 23 -210 62 -196 179 -300 337 -299 87 0 141 21 210 82 105 92 161
261 153 462 -4 100 -7 115 -36 170 -38 71 -83 110 -160 137 -71 25 -208 32
-282 15z"/>
<path d="M2345 3994 c-22 -20 -112 -71 -200 -114 -114 -56 -178 -93 -221 -131
-130 -114 -276 -313 -386 -526 -65 -127 -71 -167 -43 -278 34 -129 177 -424
288 -592 51 -78 103 -108 175 -100 26 2 54 7 62 10 11 4 23 -10 43 -51 l27
-57 0 -980 c0 -626 4 -993 10 -1016 17 -61 52 -102 109 -131 88 -45 176 -31
245 38 64 64 61 11 64 981 l3 883 39 0 39 0 3 -882 c3 -971 0 -918 64 -982 69
-69 157 -83 245 -38 57 29 92 70 109 131 6 23 10 393 10 1023 0 561 4 989 9
992 5 3 18 26 30 51 19 41 23 44 47 35 40 -16 94 -12 139 10 45 22 81 72 180
249 125 224 195 403 202 516 5 69 4 71 -54 185 -112 219 -273 437 -395 537
-59 48 -166 107 -303 168 -31 13 -77 43 -102 65 -25 22 -49 40 -52 40 -4 0
-40 -33 -80 -74 l-74 -74 76 -508 76 -507 -77 -105 c-42 -58 -82 -107 -87
-109 -19 -6 -165 203 -165 234 1 15 34 245 73 510 l73 482 -76 76 c-41 41 -78
75 -80 75 -3 -1 -23 -17 -45 -36z"/>
<path d="M1049 3274 c-13 -14 -89 -58 -169 -96 -136 -66 -151 -77 -231 -158
-139 -141 -319 -433 -319 -519 0 -101 129 -398 253 -579 48 -71 116 -98 182
-73 17 7 24 1 43 -36 l22 -44 0 -807 c1 -853 1 -853 47 -904 25 -29 91 -58
133 -58 46 0 97 28 135 74 l30 38 3 734 3 734 34 0 34 0 3 -727 c3 -714 3
-729 24 -763 38 -65 115 -100 190 -85 46 8 118 79 127 124 4 19 7 393 7 831
l0 798 26 51 c22 43 29 49 45 41 44 -24 113 -5 155 42 19 20 124 192 124 202
0 2 -17 7 -37 10 -134 24 -195 71 -287 224 -135 225 -238 448 -276 600 -27
106 -25 173 6 247 36 85 38 98 16 112 -17 10 -27 4 -81 -51 l-62 -63 57 -426
57 -425 -58 -81 c-32 -45 -61 -81 -64 -81 -3 0 -32 37 -64 81 l-59 81 54 424
54 423 -66 66 -66 66 -25 -27z m-279 -829 c0 -146 -2 -265 -4 -265 -8 0 -94
167 -121 235 l-26 66 31 57 c48 87 104 172 113 172 4 0 7 -119 7 -265z"/>
<path d="M3746 3281 c-18 -20 -18 -22 10 -83 51 -114 41 -231 -38 -430 -73
-184 -257 -515 -320 -574 -45 -44 -102 -72 -170 -85 -32 -6 -58 -14 -58 -16 0
-15 115 -194 140 -218 32 -31 103 -45 138 -26 18 10 23 6 46 -35 l26 -47 0
-802 c0 -441 3 -817 7 -836 9 -45 81 -116 127 -124 75 -15 152 20 190 85 21
34 21 49 24 763 l3 727 34 0 34 0 3 -734 3 -734 30 -38 c38 -46 89 -74 135
-74 42 0 108 29 133 58 46 51 46 51 47 903 l0 806 26 47 c22 39 28 44 44 36
32 -17 85 -11 121 13 90 61 309 511 309 636 0 89 -175 375 -320 522 -78 80
-95 92 -215 149 -71 35 -148 78 -171 96 l-40 33 -64 -64 -63 -64 57 -426 58
-426 -59 -79 c-32 -44 -61 -79 -64 -80 -3 0 -32 36 -63 81 l-58 81 53 424 53
425 -65 65 c-65 65 -65 65 -83 45z m730 -753 c28 -56 26 -65 -59 -233 l-56
-110 0 265 -1 265 46 -70 c25 -38 56 -91 70 -117z"/>
</g>
</svg>
