<svg version="1.1" id="Layer_1" xmlns="http://www.w3.org/2000/svg" xmlns:xlink="http://www.w3.org/1999/xlink" x="0px" y="0px"
	 width="100%" viewBox="0 0 512 512" enable-background="new 0 0 512 512" xml:space="preserve">
<path fill="#000000" opacity="1.000000" stroke="none" 
	d="
M1.000000,338.468658 
	C3.345904,334.057648 5.071651,329.821075 8.302722,326.317932 
	C13.101631,321.114899 19.220709,318.258575 25.337118,315.244751 
	C30.714968,312.594879 36.036842,309.829895 41.439224,307.231750 
	C46.320282,304.884308 48.623604,301.031097 48.645782,295.699860 
	C48.646477,295.533234 48.634056,295.364929 48.652534,295.200195 
	C49.449604,288.092957 47.810104,282.621948 41.793579,277.456085 
	C29.575577,266.965576 23.969889,252.974365 24.649584,236.683395 
	C25.016867,227.880295 23.918015,219.035278 25.256439,210.263016 
	C27.429535,196.020142 35.344864,185.140167 45.980972,176.076614 
	C48.187408,174.196365 48.915565,172.575546 48.743652,169.816437 
	C48.254196,161.961014 48.367344,154.182831 53.272697,147.340744 
	C62.185154,134.909485 72.355240,130.638214 87.447624,133.092712 
	C101.217827,135.332184 111.077065,146.938736 112.421738,159.958984 
	C112.762238,163.256042 113.377373,166.425583 112.400253,169.728149 
	C111.093887,174.143539 114.831108,176.022690 117.353058,178.075684 
	C127.436539,186.284256 133.593018,196.899429 135.922607,209.433548 
	C138.331696,222.395416 138.196564,235.597183 135.967346,248.595627 
	C133.870377,260.822937 127.306572,270.676483 118.147926,278.965302 
	C113.387032,283.274048 111.433281,296.880035 114.239792,302.525299 
	C115.306374,304.670715 117.180855,305.628967 119.125473,306.554047 
	C121.685631,307.771942 124.288765,308.901123 126.251114,311.046722 
	C129.087784,314.148315 130.004883,317.396484 127.818306,321.425110 
	C125.610115,325.493530 122.128929,325.928589 118.438484,324.980316 
	C115.261696,324.164032 112.123856,322.774139 109.319786,321.062744 
	C107.071381,319.690491 105.703941,320.036896 104.239510,321.839844 
	C104.030670,322.096954 103.795692,322.348206 103.528320,322.540222 
	C91.868217,330.913757 87.879715,341.856323 89.019173,356.398834 
	C90.407738,374.120728 89.377029,392.034668 89.329445,409.865356 
	C89.312141,416.349945 87.136475,420.145752 83.132004,421.136505 
	C77.201080,422.603912 72.693359,419.043121 72.680786,412.688110 
	C72.636932,390.524658 72.476410,368.358368 72.790779,346.199280 
	C72.875336,340.239105 71.532738,335.664062 66.854889,331.806305 
	C62.507996,328.221497 59.037090,321.632996 54.426758,320.859497 
	C49.887775,320.097931 44.380802,324.934906 39.337730,327.395691 
	C34.140320,329.931824 28.990181,332.564758 23.025475,335.553070 
	C28.152020,340.775391 32.500553,345.781799 37.442535,350.110687 
	C45.840618,357.466858 48.967262,366.963684 49.269650,377.569702 
	C49.582973,388.559204 49.438557,399.565796 49.304928,410.562592 
	C49.213142,418.116119 46.397774,421.345642 40.445293,421.323303 
	C35.118771,421.303314 32.745808,418.941132 32.695278,413.211304 
	C32.605637,403.046844 32.638367,392.881012 32.662899,382.715851 
	C32.696434,368.821289 29.882139,365.219818 17.019257,355.373199 
	C15.781662,356.633667 16.372194,358.211853 16.368523,359.618622 
	C16.324129,376.616119 16.344530,393.613739 16.333393,410.611328 
	C16.326422,421.250366 11.198175,424.276428 1.364210,419.124817 
	C1.000000,392.312439 1.000000,365.624878 1.000000,338.468658 
M111.144669,261.652283 
	C115.761803,255.607849 119.101067,249.089722 119.616318,240.981644 
	C118.073929,241.073212 117.427635,241.087845 116.786499,241.153122 
	C98.181770,243.046906 81.149048,239.418930 66.739349,226.775436 
	C64.658257,224.949432 62.993244,225.462082 60.972019,226.829910 
	C56.449928,229.890213 51.857498,233.060043 46.505455,234.313446 
	C41.435486,235.500778 40.724159,238.748535 41.501938,242.851791 
	C42.114388,246.082855 42.855835,249.414993 44.272419,252.348557 
	C57.315567,279.359253 90.722893,285.424072 111.144669,261.652283 
M73.527496,182.170364 
	C54.104427,185.300354 40.012589,205.909592 42.288490,217.109802 
	C47.939140,215.465317 50.042255,214.187897 56.098515,208.721802 
	C61.704914,203.661713 67.613190,203.095932 71.899712,208.060883 
	C74.328133,210.873642 77.058685,213.212234 79.865059,215.440948 
	C89.903641,223.413254 101.469093,225.899689 114.065361,224.306900 
	C118.619370,223.731049 120.534256,222.510147 119.902916,216.800293 
	C117.468903,194.786697 96.510391,178.325653 73.527496,182.170364 
M73.365028,313.147980 
	C75.822418,315.543640 78.279808,317.939301 81.752975,321.325195 
	C85.842026,316.767181 89.168564,312.326904 93.231567,308.715149 
	C98.325050,304.187378 96.451393,298.632599 96.393166,293.356689 
	C96.370926,291.341278 94.470314,291.718567 92.875580,292.077484 
	C87.339813,293.323425 81.714149,293.495789 76.052612,293.374054 
	C72.635735,293.300568 69.436943,291.482300 66.162056,291.972687 
	C63.507473,299.813934 64.174683,306.466278 71.427879,311.234650 
	C71.973656,311.593475 72.387825,312.152496 73.365028,313.147980 
M96.373268,164.812714 
	C95.990044,160.929642 94.541039,157.514450 92.062813,154.482544 
	C88.067108,149.594162 80.220543,147.898773 74.408478,150.757996 
	C68.064804,153.878708 64.658470,160.099243 66.261177,166.107925 
	C72.545830,164.314392 79.023735,164.761780 85.476250,164.627243 
	C89.065529,164.552399 92.451241,166.860855 96.373268,164.812714 
z"/>
<path fill="#000000" opacity="1.000000" stroke="none" 
	d="
M513.000000,417.531342 
	C509.847229,421.531677 505.945343,422.318817 501.693237,420.620636 
	C497.435516,418.920258 497.645660,415.008484 497.646942,411.293335 
	C497.655518,386.966553 497.667114,362.639709 497.619995,338.313019 
	C497.615967,336.232880 498.295776,333.935150 496.071106,331.775970 
	C487.947052,337.853699 481.196625,344.499084 481.304443,355.827972 
	C481.482056,374.487915 481.361023,393.150818 481.342926,411.812469 
	C481.336670,418.270966 479.633911,420.746094 474.951324,421.285675 
	C469.305481,421.936218 466.273224,419.606201 464.945587,413.369354 
	C464.604095,411.764984 464.678070,410.057739 464.676239,408.397675 
	C464.657928,391.568878 464.821350,374.738098 464.612488,357.911865 
	C464.445343,344.446075 467.837830,332.687897 478.805023,323.920074 
	C481.121368,322.068268 483.057098,319.740448 485.160919,317.639160 
	C484.164734,315.331879 482.019196,314.993744 480.323730,314.135620 
	C468.898254,308.352875 457.379120,302.751801 446.028717,296.826843 
	C443.598602,295.558289 442.066803,295.679413 440.433746,297.637085 
	C440.115051,298.019135 439.769897,298.403625 439.366821,298.687286 
	C427.709167,306.889923 424.319550,317.796661 424.994507,332.098083 
	C426.234253,358.365845 425.353210,384.733887 425.346588,411.060150 
	C425.344849,418.078461 422.864929,421.296265 417.489136,421.325439 
	C411.849091,421.356049 408.701477,417.832520 408.689972,411.005920 
	C408.638245,380.347595 408.584595,349.688629 408.764008,319.031250 
	C408.790680,314.471222 407.609009,311.007416 404.136200,308.112946 
	C401.968628,306.306366 400.020172,304.218842 398.091797,302.147156 
	C394.584900,298.379608 391.454132,294.718750 385.153229,297.134552 
	C381.506226,298.532837 377.878357,296.774231 376.586975,292.427032 
	C375.326080,288.182495 376.300629,284.629761 380.031647,281.958588 
	C385.636963,277.945618 386.787048,267.084503 382.112061,262.173950 
	C373.084076,252.691025 368.900665,241.258774 368.737671,228.337082 
	C368.688507,224.439285 368.499329,221.264160 364.258911,219.391479 
	C361.729248,218.274323 360.799316,215.325958 360.753876,212.648468 
	C360.570892,201.865784 360.263397,191.094482 363.705719,180.584641 
	C369.533173,162.792526 388.382935,148.637436 407.148407,148.727768 
	C415.937775,148.770065 424.737000,147.965195 433.535828,149.462463 
	C454.379120,153.009293 466.811829,165.561768 472.186829,185.434113 
	C474.825226,195.188919 473.075409,205.306656 473.191589,215.258652 
	C473.223999,218.035187 470.867828,219.679794 468.497498,220.558945 
	C465.768127,221.571274 465.134033,223.364044 465.335144,225.974258 
	C466.477783,240.804794 461.289154,253.225327 451.186493,263.947174 
	C446.383636,269.044403 449.202850,279.422699 456.234802,283.018463 
	C468.823517,289.455750 481.447083,295.831238 494.170349,301.996857 
	C503.150574,306.348633 509.529816,312.843353 512.818726,322.702576 
	C513.000000,354.354218 513.000000,385.708466 513.000000,417.531342 
M430.120422,257.758820 
	C443.312531,250.725418 449.640228,239.916840 448.752075,224.813187 
	C448.534576,221.114502 446.862091,219.720291 443.683746,219.412598 
	C430.339905,218.120865 417.734985,214.200256 405.590118,208.699173 
	C403.532379,207.767120 401.759338,207.602829 400.084839,209.115341 
	C396.830170,212.055206 392.931610,213.915115 389.115570,215.939728 
	C387.540680,216.775284 385.896973,217.486649 385.400848,219.644684 
	C382.790680,230.997910 389.476044,247.845520 399.172668,254.642410 
	C408.692627,261.315460 418.800720,261.939026 430.120422,257.758820 
M386.934692,197.399002 
	C389.473114,195.811188 391.897736,194.120163 393.930115,191.851059 
	C397.280060,188.110855 401.323151,187.814713 405.724701,189.868637 
	C409.785706,191.763657 413.794037,193.799881 417.954987,195.446945 
	C428.944977,199.797195 440.293640,202.778824 452.130096,203.618576 
	C454.336731,203.775146 456.483032,203.804092 456.663696,200.529144 
	C457.334320,188.373749 453.540527,178.238571 443.308685,171.152634 
	C431.643127,163.073807 404.560822,162.763763 392.214264,170.362213 
	C382.392517,176.406799 375.804077,190.866409 378.052704,201.963303 
	C381.255371,201.393509 383.785034,199.576324 386.934692,197.399002 
M401.569244,280.693390 
	C406.027740,286.503265 411.573029,291.203644 416.910187,296.531555 
	C422.261230,291.250397 427.227081,286.385315 432.144287,281.471558 
	C433.388428,280.228302 434.136688,278.643311 433.239349,276.942444 
	C432.260529,275.087097 430.658386,275.523773 428.893738,275.908997 
	C421.372345,277.550842 413.757812,278.288361 406.265656,275.975586 
	C402.186005,274.716248 401.005707,276.146149 401.569244,280.693390 
z"/>
<path fill="#000000" opacity="1.000000" stroke="none" 
	d="
M183.408020,337.812500 
	C178.006622,328.346008 169.708496,322.145813 161.350266,313.911377 
	C161.350266,318.070709 161.350372,320.844238 161.350250,323.617798 
	C161.349060,352.616211 161.366745,381.614655 161.333313,410.613007 
	C161.324936,417.872894 158.765381,421.078735 153.054230,421.315735 
	C148.234543,421.515778 144.715073,418.445801 144.706787,413.559387 
	C144.647980,378.894775 144.078186,344.215149 144.932343,309.571411 
	C145.364166,292.057159 157.238068,281.591125 172.432541,274.795807 
	C185.323135,269.030853 198.296219,263.450287 211.237305,257.798492 
	C213.869568,256.648895 215.908722,254.569046 216.214493,251.936890 
	C216.910614,245.944824 217.800705,240.198105 212.233459,235.011993 
	C199.384628,223.042801 192.971634,207.833969 192.711868,190.197464 
	C192.674316,187.648575 191.905029,185.712067 190.027451,184.064270 
	C185.992188,180.522842 184.480133,175.967407 184.642471,170.684967 
	C184.968201,160.086426 183.650726,149.392593 186.937134,138.986710 
	C194.384262,115.406670 209.726120,99.258202 233.949829,94.370697 
	C251.946564,90.739586 270.860291,89.795471 288.536896,96.788422 
	C310.438843,105.452927 324.045990,121.728195 328.329010,145.206833 
	C329.639954,152.393158 330.821381,159.665344 327.189514,166.631195 
	C326.881775,167.221420 326.716522,168.043823 326.227753,168.357849 
	C319.812103,172.480148 321.168854,178.944061 321.398407,184.889740 
	C322.189087,205.367111 315.177612,222.527039 300.389984,236.718063 
	C293.757660,243.082825 296.470947,255.043442 304.807983,258.659393 
	C318.670929,264.672028 332.654327,270.471558 346.177582,277.185455 
	C361.228882,284.657990 369.419312,296.958771 369.373444,314.260437 
	C369.286835,346.925110 369.359589,379.590149 369.338440,412.255035 
	C369.334351,418.574493 366.039825,421.845551 360.289490,421.292084 
	C356.872009,420.963165 354.483337,419.428558 353.392670,415.847931 
	C352.686615,413.529999 352.672974,411.264404 352.671570,408.952942 
	C352.654053,380.287842 352.661224,351.622711 352.662018,322.957611 
	C352.662079,320.479950 352.661987,318.002289 352.661987,314.362762 
	C344.563599,321.309967 337.377625,327.579773 331.856293,335.465240 
	C329.836853,338.349365 329.296661,341.836670 329.309814,345.453796 
	C329.390503,367.618958 329.359772,389.784546 329.341705,411.950012 
	C329.336731,418.067047 326.665558,421.244629 321.585968,421.318787 
	C316.029999,421.399872 312.780762,418.428925 312.742645,412.242004 
	C312.596741,388.577667 312.456268,364.908539 312.802856,341.248352 
	C312.931305,332.480896 317.099213,324.984680 323.251862,318.721222 
	C329.324036,312.539703 335.378937,306.338806 341.568207,300.275818 
	C344.346649,297.554047 344.275391,295.490265 340.736938,293.799286 
	C334.011810,290.585358 327.280945,287.381348 320.505951,284.274658 
	C314.323395,281.439667 308.035706,278.831818 301.878540,275.944397 
	C298.110199,274.177216 295.269012,274.517303 292.214783,277.737793 
	C284.649170,285.715271 276.797455,293.428864 268.879059,301.060059 
	C266.261932,303.582275 265.268127,306.238098 265.280457,309.856140 
	C265.395721,343.687225 265.359741,377.518890 265.337952,411.350372 
	C265.333893,417.638428 262.788483,421.021973 258.026306,421.322510 
	C252.183517,421.691284 248.743607,418.558838 248.699997,412.432861 
	C248.602676,398.767609 248.657455,385.101257 248.658203,371.435333 
	C248.659302,350.936462 248.600449,330.437134 248.734970,309.939087 
	C248.758621,306.332458 247.745605,303.629120 245.142563,301.102783 
	C236.891769,293.095093 228.827759,284.895020 220.691833,276.768982 
	C219.132919,275.211975 217.697891,273.745087 215.075714,274.918152 
	C201.444260,281.016602 187.739914,286.952637 174.134171,293.107117 
	C172.587326,293.806824 170.800476,294.748779 170.056366,296.775085 
	C170.518356,298.984039 172.484192,300.156281 173.924820,301.699097 
	C180.621323,308.870605 188.207825,315.178284 194.282303,322.963226 
	C198.976715,328.979492 201.211029,335.884552 201.275299,343.309723 
	C201.470001,365.806824 201.371429,388.306732 201.330734,410.805420 
	C201.318512,417.569031 198.816193,421.036957 194.014496,421.322052 
	C187.971222,421.680878 184.687164,418.665955 184.677292,412.524475 
	C184.642502,390.859039 184.642899,369.193481 184.695068,347.528107 
	C184.702744,344.342346 184.536987,341.221100 183.408020,337.812500 
M311.211700,145.305786 
	C310.816650,144.213196 310.416107,143.122559 310.027344,142.027740 
	C304.483673,126.416153 293.787567,116.322548 277.985535,111.228615 
	C269.465088,108.481979 260.848206,109.743446 252.263397,109.350662 
	C236.493683,108.629143 223.337875,114.219200 212.980560,126.063576 
	C201.915451,138.717407 200.012146,153.761566 201.791901,169.911285 
	C206.244125,169.767151 208.499176,166.533081 211.457169,164.579437 
	C215.434402,161.952698 220.517715,162.411499 223.172302,165.711227 
	C226.348679,169.659592 225.885162,174.818298 221.797974,178.144272 
	C218.975922,180.440704 216.050827,182.712830 212.867218,184.431763 
	C210.089294,185.931625 209.087616,187.805786 209.332504,190.811935 
	C210.576050,206.077133 216.962753,218.663498 229.631424,227.352234 
	C246.819351,239.140427 262.001709,239.610840 278.424591,230.997086 
	C298.358582,220.541718 305.968658,202.812408 304.709534,180.770996 
	C304.510498,177.286499 302.491364,176.124176 299.882782,176.612518 
	C292.400787,178.013214 285.050354,176.968857 277.609161,176.434799 
	C259.339050,175.123566 243.127045,168.893631 229.136261,157.060318 
	C226.991180,155.246017 225.123215,152.986710 224.752289,150.039520 
	C224.298630,146.435043 225.509567,143.202301 228.752151,141.553131 
	C232.427704,139.683731 236.161636,140.262497 239.364090,143.121964 
	C246.398468,149.402924 254.434280,153.838470 263.436188,156.717468 
	C278.686554,161.594849 294.079926,161.239563 309.623230,158.658127 
	C311.997101,158.263870 312.805756,157.031265 312.610840,154.946701 
	C312.333832,151.984192 311.870331,149.039093 311.211700,145.305786 
M269.145905,276.626343 
	C273.146362,272.627838 277.175079,268.656982 281.129059,264.613037 
	C282.233185,263.483795 283.533844,262.501343 282.795105,260.358887 
	C281.635132,256.994781 280.910004,253.480698 279.943542,249.813004 
	C272.174164,251.539444 264.674133,253.440353 256.801483,253.436951 
	C248.985992,253.433563 241.532898,251.578613 233.841156,249.547623 
	C233.164825,252.989136 232.928955,256.011597 231.932434,258.758057 
	C230.893539,261.621246 231.763565,263.528015 233.677811,265.433746 
	C240.515259,272.240875 247.384644,279.017883 254.107758,285.936707 
	C256.199158,288.088989 257.780609,288.233459 259.845154,286.001282 
	C262.667328,282.949921 265.684814,280.079224 269.145905,276.626343 
z"/>
</svg>