<?xml version="1.0" standalone="no"?>
<!DOCTYPE svg PUBLIC "-//W3C//DTD SVG 20010904//EN"
 "http://www.w3.org/TR/2001/REC-SVG-20010904/DTD/svg10.dtd">
<svg version="1.0" xmlns="http://www.w3.org/2000/svg"
 width="512.000000pt" height="512.000000pt" viewBox="0 0 512.000000 512.000000"
 preserveAspectRatio="xMidYMid meet">

<g transform="translate(0.000000,512.000000) scale(0.100000,-0.100000)"
fill="#000000" stroke="none">
<path d="M2468 4860 c-274 -43 -478 -283 -478 -564 0 -174 47 -284 177 -414
l83 -83 0 -452 c0 -267 -5 -489 -11 -542 -15 -120 -52 -261 -97 -366 -39 -92
-433 -818 -443 -819 -4 0 -71 154 -149 343 -174 416 -167 403 -197 416 -69 31
-83 10 -229 -344 -70 -170 -130 -313 -133 -317 -15 -17 -359 144 -506 237
-116 73 -220 151 -307 231 -57 52 -76 64 -103 64 -24 0 -39 -7 -54 -26 -21
-26 -21 -35 -21 -571 l0 -544 47 -50 c153 -164 500 -381 798 -500 515 -205
1063 -301 1715 -301 652 0 1200 96 1715 301 298 119 645 336 798 500 l47 50 0
544 c0 536 0 545 -21 571 -15 19 -30 26 -54 26 -27 0 -46 -12 -103 -64 -186
-171 -459 -337 -732 -444 l-75 -30 -11 22 c-7 11 -66 154 -134 316 -121 295
-147 340 -190 340 -46 0 -69 -43 -216 -395 -80 -192 -149 -358 -153 -369 -6
-14 -57 72 -212 355 -224 408 -265 496 -302 639 -41 158 -47 248 -47 727 l0
452 83 83 c131 131 177 240 177 418 0 248 -155 459 -395 538 -72 24 -189 34
-267 22z m224 -169 c300 -103 387 -478 162 -697 -266 -260 -713 -74 -714 297
0 181 112 338 284 399 71 26 196 26 268 1z m-132 -966 c52 0 109 3 127 7 l32
7 4 -487 c6 -716 -7 -673 429 -1467 171 -310 220 -393 242 -404 25 -12 43 -11
140 9 329 64 646 166 920 294 129 60 316 172 422 251 47 36 87 65 90 65 2 0 4
-188 4 -418 l0 -418 -57 -50 c-436 -382 -1133 -629 -1963 -694 -174 -14 -606
-14 -780 0 -830 65 -1527 312 -1963 694 l-57 50 0 418 c0 230 2 418 4 418 3 0
43 -29 90 -65 323 -243 808 -440 1342 -545 97 -20 115 -21 140 -9 22 11 71 94
242 404 325 593 353 652 403 880 21 94 22 130 26 587 l4 487 32 -7 c18 -4 75
-7 127 -7z m-1112 -1912 c60 -145 108 -263 107 -263 -14 0 -239 57 -318 80
-55 17 -101 30 -102 30 -2 0 35 91 82 203 47 111 89 213 95 227 10 24 10 24
18 5 4 -11 58 -138 118 -282z m2451 62 c49 -115 87 -211 86 -212 -8 -12 -406
-115 -414 -107 -2 2 48 127 110 279 73 175 117 270 122 262 5 -6 48 -106 96
-222z"/>
<path d="M2527 2067 c-20 -9 -79 -92 -236 -339 -115 -180 -212 -336 -216 -348
-3 -11 0 -32 8 -48 32 -63 418 -557 444 -568 53 -22 69 -6 293 288 173 228
214 288 214 312 -1 23 -57 119 -212 361 -226 352 -238 365 -295 342z m-49
-837 l-3 -171 -117 155 -117 154 117 183 117 183 3 -166 c1 -92 1 -244 0 -338z
m281 311 l110 -173 -111 -147 c-61 -80 -114 -150 -119 -155 -5 -6 -9 135 -9
329 0 200 4 335 9 330 5 -6 59 -88 120 -184z"/>
</g>
</svg>
